<?xml version="1.0" standalone="no"?><!DOCTYPE svg PUBLIC "-//W3C//DTD SVG 1.1//EN" "http://www.w3.org/Graphics/SVG/1.1/DTD/svg11.dtd"><svg t="1539140108934" class="icon" style="" viewBox="0 0 1024 1024" version="1.1" xmlns="http://www.w3.org/2000/svg" p-id="12119" xmlns:xlink="http://www.w3.org/1999/xlink" width="32" height="32"><defs><style type="text/css"></style></defs><path d="M89.6 198.4c0-64 19.2-89.6 89.6-89.6h115.2V51.2H147.2C51.2 51.2 32 76.8 32 172.8V320h57.6V198.4z m0 627.2v-147.2H32v179.2c0 96 19.2 121.6 115.2 121.6h147.2v-57.6H179.2c-64-6.4-89.6-32-89.6-96z m755.2-326.4c0-179.2-140.8-326.4-320-326.4s-320 147.2-320 326.4 140.8 326.4 320 326.4 320-147.2 320-326.4zM556.8 768v-96h-57.6V768c-121.6-12.8-224-115.2-236.8-243.2h89.6v-57.6H262.4c12.8-128 115.2-230.4 236.8-243.2V320h57.6V224c121.6 12.8 224 115.2 236.8 243.2H704v57.6h89.6c-12.8 128-115.2 230.4-236.8 243.2z m320-716.8h-147.2v57.6h115.2c64 0 83.2 25.6 89.6 89.6V320h57.6V172.8c0-96-19.2-121.6-115.2-121.6z m57.6 774.4c0 64-19.2 89.6-89.6 89.6h-115.2v57.6h147.2c96 0 115.2-25.6 115.2-121.6v-179.2h-57.6v153.6z m0 0" fill="#1296db" p-id="12120"></path></svg>