<?xml version="1.0" standalone="no"?><!DOCTYPE svg PUBLIC "-//W3C//DTD SVG 1.1//EN" "http://www.w3.org/Graphics/SVG/1.1/DTD/svg11.dtd"><svg t="1539134051988" class="icon" style="" viewBox="0 0 1024 1024" version="1.1" xmlns="http://www.w3.org/2000/svg" p-id="8175" xmlns:xlink="http://www.w3.org/1999/xlink" width="32" height="32"><defs><style type="text/css"></style></defs><path d="M512 960A448 448 0 1 1 512 64a448 448 0 0 1 0 896zM512 192a320 320 0 1 0 0.064 640.064A320 320 0 0 0 512 192z m-19.52 493.952a63.488 63.488 0 1 1-89.856-89.856L486.976 512 402.624 427.84a63.488 63.488 0 1 1 89.856-89.792l129.408 129.024a63.424 63.424 0 0 1 0 89.792l-129.408 129.088z" p-id="8176"></path></svg>