<?xml version="1.0" standalone="no"?><!DOCTYPE svg PUBLIC "-//W3C//DTD SVG 1.1//EN" "http://www.w3.org/Graphics/SVG/1.1/DTD/svg11.dtd"><svg t="1539135903848" class="icon" style="" viewBox="0 0 1024 1024" version="1.1" xmlns="http://www.w3.org/2000/svg" p-id="8883" xmlns:xlink="http://www.w3.org/1999/xlink" width="48" height="48"><defs><style type="text/css"></style></defs><path d="M896.384 129.619H543.933V97.724c0-17.616-14.297-31.899-31.931-31.899s-31.931 14.283-31.931 31.899v31.895H127.62c-34.592 0-62.636 25.212-62.636 56.306v461.519c0 31.101 28.044 56.313 62.636 56.313h311.844L249.247 906.04c-12.073 12.838-11.44 33.025 1.413 45.088 12.853 12.062 33.061 11.433 45.134-1.405l184.277-195.975v109.493c0 17.616 14.297 31.895 31.931 31.895s31.931-14.279 31.931-31.895V751.88l186.033 197.841c12.073 12.835 32.282 13.464 45.138 1.405 12.849-12.062 13.478-32.249 1.405-45.088L586.292 703.757h310.092c34.592 0 62.632-25.212 62.632-56.313V185.925c0-31.094-28.04-56.306-62.632-56.306z m-1.227 460.618c0 31.094-28.044 56.306-62.628 56.306h-641.05c-34.592 0-62.632-25.212-62.632-56.306V243.336c0-31.098 28.04-56.306 62.632-56.306h641.05c34.585 0 62.628 25.208 62.628 56.306v346.901z m-609.448-12.878h63.855V353.888h-63.855v223.471z m129.316 0h63.855V291.095h-63.855v286.264z m126.909 0h63.859V420.675h-63.859v156.684z m126.848 0h63.859V231.288h-63.859v346.071z" p-id="8884" fill="#1296db"></path></svg>