<?xml version="1.0" standalone="no"?><!DOCTYPE svg PUBLIC "-//W3C//DTD SVG 1.1//EN" "http://www.w3.org/Graphics/SVG/1.1/DTD/svg11.dtd"><svg t="1540189614414" class="icon" style="" viewBox="0 0 1024 1024" version="1.1" xmlns="http://www.w3.org/2000/svg" p-id="2826" xmlns:xlink="http://www.w3.org/1999/xlink" width="128" height="128"><defs><style type="text/css"></style></defs><path d="M510.433 63.13c-246.624 0-446.546 200.832-446.546 448.584 0 33.428 3.752 65.953 10.655 97.294 44.258 200.947 222.543 351.29 435.895 351.29 213.343 0 391.629-150.339 435.887-351.29 6.895-31.345 10.655-63.867 10.655-97.294C956.975 263.962 757.053 63.13 510.433 63.13z" fill="#FFD86D" p-id="2827"></path><path d="M753.571 649.935V444.386a5.869 5.869 0 0 0-5.87-5.87H300.886a5.869 5.869 0 0 0-5.87 5.87v205.549a5.869 5.869 0 0 0 5.87 5.87h446.816a5.871 5.871 0 0 0 5.869-5.87z" fill="#326D86" p-id="2828"></path><path d="M709.882 655.805V298.097c0-5.238-4.245-9.491-9.487-9.491H350.031a9.49 9.49 0 0 0-9.491 9.491v357.709h369.342z" fill="#FFFFFF" p-id="2829"></path><path d="M376.015 684.75l117.893-110.123-198.892-130.265V684.75zM753.571 684.75V444.362L554.679 574.627 672.572 684.75z" fill="#329097" p-id="2830"></path><path d="M370.225 339.497h269.587v18.712H370.225zM370.225 380.563h140.204v18.712H370.225zM370.225 421.633H631.2v18.712H370.225zM370.225 462.699h248.392v18.712H370.225z" fill="#CCCCCC" p-id="2831"></path><path d="M295.016 678.439l229.276-149.981 229.28 149.981v17.034c0 13.183-10.687 23.87-23.869 23.87H318.885c-13.183 0-23.869-10.687-23.869-23.87v-17.034z" fill="#32B197" p-id="2832"></path></svg>