<?xml version="1.0" standalone="no"?><!DOCTYPE svg PUBLIC "-//W3C//DTD SVG 1.1//EN" "http://www.w3.org/Graphics/SVG/1.1/DTD/svg11.dtd"><svg t="1539140202617" class="icon" style="" viewBox="0 0 1024 1024" version="1.1" xmlns="http://www.w3.org/2000/svg" p-id="2578" xmlns:xlink="http://www.w3.org/1999/xlink" width="32" height="32"><defs><style type="text/css"></style></defs><path d="M380.60558 805.850988c0 44.54009-36.107406 80.649928-80.649928 80.649928l0 0c-44.541306 0-80.648712-36.109839-80.648712-80.649928L219.30694 220.39189c0-44.541306 36.107406-80.649928 80.648712-80.649928l0 0c44.542522 0 80.649928 36.108622 80.649928 80.649928L380.60558 805.850988 380.60558 805.850988z" p-id="2579" fill="#e0620d"></path><path d="M801.280091 805.850988c0 44.54009-36.109839 80.649928-80.649928 80.649928l0 0c-44.541306 0-80.649928-36.109839-80.649928-80.649928L639.980235 220.39189c0-44.541306 36.108622-80.649928 80.649928-80.649928l0 0c44.54009 0 80.649928 36.108622 80.649928 80.649928L801.280091 805.850988 801.280091 805.850988z" p-id="2580" fill="#e0620d"></path></svg>